<svg width="48" height="48" viewBox="0 0 48 48" fill="none" xmlns="http://www.w3.org/2000/svg">
<path d="M18.6592 18.1601C18.6592 17.884 18.4353 17.6601 18.1592 17.6601C17.8874 17.6704 17.6694 17.8883 17.6592 18.1601C17.6592 18.7201 18.6592 18.7201 18.6592 18.1601Z" fill="#6B7CFF"/>
<path d="M29.8398 29.34C29.5637 29.34 29.3398 29.5638 29.3398 29.84C29.3398 30.38 30.3398 30.38 30.3398 29.84C30.3398 29.5638 30.116 29.34 29.8398 29.34Z" fill="#6B7CFF"/>
<path fill-rule="evenodd" clip-rule="evenodd" d="M41.1596 16.8001C41.5517 17.5412 42.0578 18.2161 42.6596 18.8001C44.2145 20.1162 45.2088 21.976 45.4396 24.0001C45.2106 25.9739 44.2553 27.7919 42.7596 29.1001C42.1579 29.684 41.6517 30.3589 41.2596 31.1001C41.0108 31.9296 40.9026 32.7948 40.9396 33.6601C41.1067 35.6411 40.5052 37.6105 39.2596 39.1601C37.71 40.4056 35.7406 41.0072 33.7596 40.8401C32.8944 40.8031 32.0291 40.9113 31.1996 41.1601C30.4618 41.5575 29.7877 42.0631 29.1996 42.6601C27.8927 44.2264 26.028 45.2233 23.9996 45.4401C22.0216 45.2244 20.1991 44.2667 18.8996 42.7601C18.3115 42.1631 17.6373 41.6575 16.8996 41.2601C16.0701 41.0113 15.2048 40.9031 14.3396 40.9401C12.3585 41.1072 10.3891 40.5056 8.83957 39.2601C7.59399 37.7105 6.99242 35.7411 7.15957 33.7601C7.1965 32.8948 7.08834 32.0296 6.83957 31.2001C6.44747 30.4589 5.94129 29.784 5.33957 29.2001C3.78462 27.8839 2.79035 26.0241 2.55957 24.0001C2.78852 22.0262 3.74386 20.2082 5.23957 18.9001C5.84129 18.3161 6.34747 17.6412 6.73957 16.9001C6.98833 16.0706 7.0965 15.2053 7.05957 14.3401C6.89242 12.359 7.49399 10.3896 8.73957 8.84006C10.2891 7.59448 12.2585 6.99291 14.2396 7.16006C15.1048 7.19698 15.9701 7.08882 16.7996 6.84006C17.5373 6.44262 18.2115 5.93702 18.7996 5.34006C20.1065 3.77371 21.9712 2.77682 23.9996 2.56006C25.9775 2.7757 27.8 3.73343 29.0996 5.24006C29.6877 5.83702 30.3618 6.34262 31.0996 6.74006C31.9291 6.98882 32.7944 7.09698 33.6596 7.06006C35.6406 6.89291 37.61 7.49448 39.1596 8.74006C40.4052 10.2896 41.0067 12.259 40.8396 14.2401C40.8026 15.1053 40.9108 15.9706 41.1596 16.8001ZM18.1596 13.6601C15.6743 13.6601 13.6596 15.6748 13.6596 18.1601C13.6596 20.6453 15.6743 22.6601 18.1596 22.6601C20.6449 22.6601 22.6596 20.6453 22.6596 18.1601C22.6596 15.6748 20.6449 13.6601 18.1596 13.6601ZM18.7396 32.1601C18.367 32.5295 17.8643 32.7379 17.3396 32.7401C16.8124 32.6809 16.3304 32.4147 15.9996 32.0001C15.2241 31.22 15.2241 29.9601 15.9996 29.1801L29.2596 16.0001C29.6853 15.2813 30.5128 14.9028 31.335 15.0509C32.1571 15.199 32.8006 15.8425 32.9487 16.6646C33.0968 17.4868 32.7184 18.3144 31.9996 18.7401L18.7396 32.1601ZM25.3396 29.9201C25.3396 32.4053 27.3543 34.4201 29.8396 34.4201V34.3401C32.2939 34.3404 34.2959 32.374 34.3396 29.9201C34.3396 27.4348 32.3249 25.4201 29.8396 25.4201C27.3543 25.4201 25.3396 27.4348 25.3396 29.9201Z" fill="#6B7CFF"/>
</svg>
