<svg width="56" height="56" viewBox="0 0 56 56" fill="none" xmlns="http://www.w3.org/2000/svg">
<g id="Icon">
<path id="Vector" fill-rule="evenodd" clip-rule="evenodd" d="M17.8976 27.1197C13.5567 25.3454 10.5 21.0814 10.5 16.1002C10.5 9.52545 15.8253 4.2002 22.4 4.2002C28.9748 4.2002 34.3 9.52545 34.3 16.1002C34.3 21.0815 31.2432 25.3455 26.9023 27.1198C31.0801 28.1019 34.7426 30.4207 37.4137 33.6002H30.6773L30.4459 33.6065C28.3015 33.725 26.5996 35.4796 26.5996 37.6267V46.2002H2.7998C2.7998 36.9247 9.24289 29.1541 17.8976 27.1197ZM28.6867 18.9739C27.9616 21.8113 25.3707 23.8002 22.3995 23.8002C19.4283 23.8002 16.8374 21.8113 16.1123 18.9739L19.2551 18.2002C19.614 19.6228 20.911 20.6215 22.3995 20.6215C23.888 20.6215 25.1851 19.6228 25.5439 18.2002L28.6867 18.9739Z" fill="#6B7CFF"/>
<path id="Vector_2" fill-rule="evenodd" clip-rule="evenodd" d="M29.4004 37.9144C29.4004 37.0779 30.0784 36.3999 30.9149 36.3999H50.2859C51.1224 36.3999 51.8004 37.0779 51.8004 37.9144V49.2371C51.8004 50.0735 51.1224 50.7515 50.2859 50.7515H45.1182C44.4363 50.7581 42.6219 52.0591 41.5109 52.9071C40.9844 53.309 40.24 53.2803 39.7337 52.8532C38.7282 52.0052 37.0812 50.7579 36.0848 50.7515H30.9149C30.0784 50.7515 29.4004 50.0735 29.4004 49.2371V37.9144ZM35.3231 45.0108C36.1558 45.0108 36.8308 44.3683 36.8308 43.5757C36.8308 42.783 36.1558 42.1405 35.3231 42.1405C34.4904 42.1405 33.8154 42.783 33.8154 43.5757C33.8154 44.3683 34.4904 45.0108 35.3231 45.0108ZM40.6005 45.0108C41.4332 45.0108 42.1082 44.3683 42.1082 43.5757C42.1082 42.783 41.4332 42.1405 40.6005 42.1405C39.7678 42.1405 39.0928 42.783 39.0928 43.5757C39.0928 44.3683 39.7678 45.0108 40.6005 45.0108ZM47.3845 43.5757C47.3845 44.3683 46.7095 45.0108 45.8768 45.0108C45.0441 45.0108 44.3691 44.3683 44.3691 43.5757C44.3691 42.783 45.0441 42.1405 45.8768 42.1405C46.7095 42.1405 47.3845 42.783 47.3845 43.5757Z" fill="#6B7CFF"/>
</g>
</svg>
