<svg width="56" height="56" viewBox="0 0 56 56" fill="none" xmlns="http://www.w3.org/2000/svg">
<g id="Icon">
<path id="Vector" fill-rule="evenodd" clip-rule="evenodd" d="M6.99963 5.6001C6.22644 5.6001 5.59961 6.2269 5.59961 7.0001V9.8001V16.8001C5.59961 17.5733 6.22644 18.2001 6.99963 18.2001H8.3996C9.17279 18.2001 9.79962 17.5733 9.79962 16.8001V9.8001H16.7996C17.5728 9.8001 18.1996 9.1733 18.1996 8.4001V7.0001C18.1996 6.2269 17.5728 5.6001 16.7996 5.6001H9.79962H6.99963Z" fill="#6B7CFF"/>
<path id="Vector_2" fill-rule="evenodd" clip-rule="evenodd" d="M49.0004 5.6001C49.7736 5.6001 50.4004 6.2269 50.4004 7.0001V9.8001V16.8001C50.4004 17.5733 49.7736 18.2001 49.0004 18.2001H47.6004C46.8272 18.2001 46.2004 17.5733 46.2004 16.8001V9.8001H39.2004C38.4272 9.8001 37.8004 9.1733 37.8004 8.4001V7.0001C37.8004 6.2269 38.4272 5.6001 39.2004 5.6001H46.2004H49.0004Z" fill="#6B7CFF"/>
<path id="Vector_3" fill-rule="evenodd" clip-rule="evenodd" d="M6.99963 51.7998C6.22644 51.7998 5.59961 51.173 5.59961 50.3998V47.5998V40.5998C5.59961 39.8266 6.22644 39.1998 6.99963 39.1998H8.3996C9.17279 39.1998 9.79962 39.8266 9.79962 40.5998V47.5998H16.7996C17.5728 47.5998 18.1996 48.2266 18.1996 48.9998V50.3998C18.1996 51.173 17.5728 51.7998 16.7996 51.7998H9.79962H6.99963Z" fill="#6B7CFF"/>
<path id="Vector_4" fill-rule="evenodd" clip-rule="evenodd" d="M49.0004 51.7998C49.7736 51.7998 50.4004 51.173 50.4004 50.3998V47.5998V40.5998C50.4004 39.8266 49.7736 39.1998 49.0004 39.1998H47.6004C46.8272 39.1998 46.2004 39.8266 46.2004 40.5998V47.5998H39.2004C38.4272 47.5998 37.8004 48.2266 37.8004 48.9998V50.3998C37.8004 51.173 38.4272 51.7998 39.2004 51.7998H46.2004H49.0004Z" fill="#6B7CFF"/>
<path id="Vector_5" d="M39.2476 29.7903C38.7356 31.5962 38.2003 33.4691 37.8978 35.1859C37.4556 37.7722 37.6185 39.9795 37.8047 41.2281L24.7716 46.2001V39.9349C24.7716 39.6005 24.6319 39.2884 24.3992 39.0654C24.1665 38.8424 23.8406 38.7087 23.4915 38.7087H18.7903C18.255 38.7087 17.8128 38.3073 17.8128 37.8168V32.8225C17.8128 32.1759 17.3008 31.6408 16.6259 31.5962L15.1131 31.4848C13.8331 31.3956 13.3909 31.3064 13.2978 31.2841C12.5996 30.972 12.5996 30.5483 12.5996 30.4146C12.5996 30.37 12.7392 29.3667 15.951 25.7547L16.0673 25.6209C16.4164 25.2196 16.4164 24.8183 16.4164 24.0602V23.7035C16.4397 23.6143 16.4397 23.5474 16.4397 23.4582C16.463 17.8619 22.3744 12.667 28.8211 12.6001H28.9608C35.2446 12.6001 40.5975 17.4829 40.5975 23.2353C40.644 24.9521 39.9225 27.4046 39.2476 29.7903Z" fill="#6B7CFF"/>
<path id="NLP" fill-rule="evenodd" clip-rule="evenodd" d="M20.7968 22.3176V26.6002H19.4346V19.6226H20.6498L23.4134 23.8954V19.6226H24.7756V26.6002H23.5604L20.7968 22.3176ZM30.93 25.385V26.6002H26.4024V19.6226H27.7646V25.385H30.93ZM33.3993 26.6002V23.9738H34.7419C35.1012 23.9738 35.423 23.9166 35.7072 23.8023C35.9914 23.6879 36.2331 23.5311 36.4324 23.3319C36.6317 23.1326 36.7836 22.9007 36.8881 22.6361C36.9926 22.3715 37.0449 22.0922 37.0449 21.7982C37.0449 21.5042 36.9926 21.2249 36.8881 20.9603C36.7836 20.6957 36.6317 20.4637 36.4324 20.2645C36.2331 20.0652 35.9914 19.9084 35.7072 19.7941C35.423 19.6797 35.1012 19.6226 34.7419 19.6226H32.0371V26.6002H33.3993ZM33.3994 22.7488H34.6734C34.987 22.7488 35.2336 22.6622 35.4133 22.4891C35.593 22.3159 35.6828 22.0856 35.6828 21.7982C35.6828 21.5107 35.593 21.2788 35.4133 21.1024C35.2336 20.926 34.987 20.8378 34.6734 20.8378H33.3994V22.7488Z" fill="white"/>
</g>
</svg>
