<svg width="56" height="56" viewBox="0 0 56 56" fill="none" xmlns="http://www.w3.org/2000/svg">
<g id="Icon">
<path id="Vector" fill-rule="evenodd" clip-rule="evenodd" d="M27.7981 2.7998L32.1174 4.89969L33.9002 5.82806C34.5291 6.14534 35.1051 6.40359 36.143 6.79491L37.3619 7.24055C38.9662 7.83345 40.0959 8.02328 40.5628 8.08244L40.7138 8.09978L40.9577 8.11079L41.1623 8.12456L49 8.75109V32.7614C49 44.2619 32.2501 53.1998 28 53.1998C23.0714 53.1998 7.40864 44.0119 7.00784 33.1841L7 32.7614V8.71391L12.6187 8.32353C13.3531 8.26745 14.0379 8.21187 14.5817 8.16184L15.139 8.10473C15.5382 8.05071 16.8605 7.83785 18.9456 7.17583L19.5797 6.94072C21.1223 6.35201 22.3377 5.76608 23.0368 5.40663L23.697 5.05253L27.7981 2.7998ZM27.9174 7.0381L25.7051 8.2343L25.2614 8.47858C25.0829 8.57357 24.8728 8.6822 24.6277 8.80466L23.826 9.19337C22.8993 9.62917 21.8817 10.0623 20.7915 10.4712C20.507 10.5779 20.2202 10.6819 19.9313 10.783C18.6808 11.1762 17.5165 11.4746 16.5016 11.6789L16.0759 11.7607C15.607 11.8464 15.2686 11.8946 15.0658 11.9174L14.9084 11.9321L10.5 12.2535V32.7963L10.5083 33.1679C10.6852 37.1258 13.6746 40.8861 18.3456 44.4089C21.9236 47.1073 26.1919 49.3765 28 49.3765C29.7482 49.3765 34.027 47.0914 37.5965 44.4129C42.3062 40.8789 45.3137 37.1283 45.4916 33.1682L45.5 32.7963V12.2691L41.2712 11.9352L41.0508 11.9265L40.8684 11.9146L40.453 11.8722C40.301 11.8533 40.1354 11.8297 39.9568 11.8005C39.0163 11.647 37.9436 11.3812 36.7543 10.9767L35.5123 10.5423L34.6389 10.2171C33.7826 9.88617 32.9897 9.54327 32.2664 9.19928L31.5216 8.83253L30.9903 8.55385L30.8524 8.47825L30.5598 8.30943L30.2979 8.16764L27.9174 7.0381Z" fill="#6B7CFF"/>
<path id="Vector_2" fill-rule="evenodd" clip-rule="evenodd" d="M35.2798 13.4262C38.854 14.7268 41.0506 14.7268 41.0506 14.7268L42.6998 14.857V32.7966C42.6998 39.4284 29.509 46.5768 27.9998 46.5768C26.3506 46.5768 13.2998 39.4284 13.2998 32.7966V14.857L15.0848 14.7268C15.0848 14.7268 17.1456 14.5966 20.8556 13.4262C24.5656 12.1284 27.0366 10.6976 27.0366 10.6976L27.9998 10.1768L29.0974 10.6976C29.0974 10.6976 31.434 12.1284 35.2798 13.4262ZM20.168 29.417L27.0364 35.3978L37.3404 23.1772L34.868 20.9666L26.6248 30.7176L22.2288 26.9474L20.168 29.417Z" fill="#6B7CFF"/>
</g>
</svg>
