<svg width="56" height="56" viewBox="0 0 56 56" fill="none" xmlns="http://www.w3.org/2000/svg">
<g id="Icon">
<rect id="Vector" x="51.7998" y="4.2002" width="8.4" height="47.6" rx="1.4" transform="rotate(90 51.7998 4.2002)" fill="#6B7CFF"/>
<path id="Vector_2" fill-rule="evenodd" clip-rule="evenodd" d="M32.2002 16.7999C32.2002 16.0267 31.5734 15.3999 30.8002 15.3999H5.60019C4.827 15.3999 4.2002 16.0267 4.2002 16.7999V50.3999C4.2002 51.1731 4.827 51.7999 5.60019 51.7999H30.8002C31.5734 51.7999 32.2002 51.1731 32.2002 50.3999V16.7999ZM26.5998 22.3999H9.79982V25.1999H26.5998V22.3999ZM9.79982 32.1999H26.5998V34.9999H9.79982V32.1999ZM26.5998 41.9999H9.79982V44.7999H26.5998V41.9999Z" fill="#6B7CFF"/>
<rect id="Vector_3" x="35" y="15.3999" width="16.8" height="36.4" rx="1.4" fill="#6B7CFF"/>
</g>
</svg>
