<svg width="56" height="56" viewBox="0 0 56 56" fill="none" xmlns="http://www.w3.org/2000/svg">
<g id="Icon">
<path id="Vector" fill-rule="evenodd" clip-rule="evenodd" d="M11.1998 16.8001C11.1998 17.212 11.1405 17.6101 11.03 17.9862L18.3939 22.2378C17.9131 23.0376 17.5294 23.9023 17.259 24.8157L9.37544 20.2642C8.69979 20.7284 7.88153 21.0001 6.9998 21.0001C4.68021 21.0001 2.7998 19.1197 2.7998 16.8001C2.7998 14.4805 4.68021 12.6001 6.9998 12.6001C9.3194 12.6001 11.1998 14.4805 11.1998 16.8001ZM26.5996 39.1134C27.0583 39.1707 27.5256 39.2001 27.9998 39.2001C28.4739 39.2001 28.941 39.1707 29.3996 39.1135V46.439C31.031 47.0155 32.1998 48.5713 32.1998 50.4001C32.1998 52.7197 30.3194 54.6001 27.9998 54.6001C25.6802 54.6001 23.7998 52.7197 23.7998 50.4001C23.7998 48.5715 24.9684 47.0158 26.5996 46.4392V39.1134ZM38.7406 24.8157C38.4702 23.9023 38.0865 23.0376 37.6057 22.2378L44.9696 17.9862C44.8591 17.6101 44.7998 17.212 44.7998 16.8001C44.7998 14.4805 46.6802 12.6001 48.9998 12.6001C51.3194 12.6001 53.1998 14.4805 53.1998 16.8001C53.1998 19.1197 51.3194 21.0001 48.9998 21.0001C48.1181 21.0001 47.2998 20.7284 46.6242 20.2642L38.7406 24.8157Z" fill="#6B7CFF"/>
<path id="Vector_2" fill-rule="evenodd" clip-rule="evenodd" d="M29.3996 13.8437C32.205 13.2069 34.2992 10.698 34.2992 7.6999C34.2992 4.22051 31.4786 1.3999 27.9992 1.3999C24.5198 1.3999 21.6992 4.22051 21.6992 7.6999C21.6992 10.6983 23.7938 13.2074 26.5996 13.8439V19.716C22.6268 20.3825 19.5996 23.8377 19.5996 27.9999C19.5996 29.814 20.1747 31.4937 21.1524 32.8668L15.2534 38.7658C14.2823 38.1539 13.1323 37.7999 11.8996 37.7999C8.42022 37.7999 5.59961 40.6205 5.59961 44.0999C5.59961 47.5793 8.42022 50.3999 11.8996 50.3999C15.379 50.3999 18.1996 47.5793 18.1996 44.0999C18.1996 42.867 17.8455 41.7169 17.2334 40.7457L23.1323 34.8468C24.5055 35.8247 26.1854 36.3999 27.9996 36.3999C29.8138 36.3999 31.4936 35.8248 32.8668 34.8469L38.7658 40.7459C38.1539 41.7171 37.7998 42.8671 37.7998 44.0999C37.7998 47.5793 40.6204 50.3999 44.0998 50.3999C47.5792 50.3999 50.3998 47.5793 50.3998 44.0999C50.3998 40.6205 47.5792 37.7999 44.0998 37.7999C42.867 37.7999 41.7169 38.154 40.7457 38.766L34.8467 32.867C35.8245 31.4939 36.3996 29.814 36.3996 27.9999C36.3996 23.8377 33.3724 20.3825 29.3996 19.716V13.8437Z" fill="#6B7CFF"/>
</g>
</svg>
